<?xml version="1.0" standalone="no"?>
<!DOCTYPE svg PUBLIC "-//W3C//DTD SVG 20010904//EN"
 "http://www.w3.org/TR/2001/REC-SVG-20010904/DTD/svg10.dtd">
<svg version="1.0" xmlns="http://www.w3.org/2000/svg"
 width="3840.000000pt" height="3840.000000pt" viewBox="0 0 3840.000000 3840.000000"
 preserveAspectRatio="xMidYMid meet">
<metadata>
Created by potrace 1.14, written by Peter Selinger 2001-2017
</metadata>
<g transform="translate(0.000000,3840.000000) scale(0.100000,-0.100000)"
fill="#000000" stroke="none">
<path d="M18780 29460 c-1164 -48 -2208 -243 -3201 -596 -1394 -496 -2618
-1265 -3688 -2319 -632 -622 -1135 -1271 -1593 -2055 -534 -914 -918 -1922
-1138 -2985 -77 -373 -140 -793 -150 -995 -3 -74 -7 -111 -8 -81 -5 131 -20 2
-47 -389 -22 -314 -30 -1024 -16 -1340 34 -732 125 -1395 272 -1985 256 -1025
646 -1969 1177 -2854 263 -440 609 -910 1000 -1361 228 -262 676 -706 952
-942 703 -601 1272 -982 2015 -1348 945 -466 1889 -760 3045 -949 781 -128
1375 -158 2091 -106 1101 80 1613 147 2220 290 214 51 333 87 404 122 124 62
218 168 251 280 23 79 20 203 -6 288 -12 38 -121 268 -242 510 -122 242 -229
463 -238 490 -36 102 -367 788 -560 1160 -163 313 -218 379 -373 444 -73 30
-76 30 -117 16 -24 -8 -62 -15 -86 -15 -25 0 -165 -22 -312 -49 -475 -87 -687
-106 -1222 -106 -437 0 -632 13 -970 61 -1072 153 -2099 572 -2950 1202 -573
424 -1033 877 -1428 1407 -749 1002 -1177 2131 -1299 3425 -39 421 -12 1362
47 1650 5 25 28 135 51 245 212 1026 705 2083 1343 2880 438 547 929 996 1511
1380 306 202 542 335 862 485 1732 810 3636 844 5413 97 163 -68 607 -288 636
-315 37 -34 120 -80 203 -112 126 -50 500 -310 781 -544 1232 -1026 2071
-2494 2334 -4086 57 -341 76 -561 83 -965 14 -826 -92 -1530 -341 -2261 -356
-1043 -995 -2032 -1782 -2756 -192 -176 -287 -275 -312 -325 -58 -115 -74
-292 -35 -388 12 -27 442 -900 958 -1940 515 -1039 969 -1960 1007 -2045 88
-195 148 -297 217 -372 61 -67 114 -101 204 -132 l62 -21 1637 -3 c1790 -3
1715 -5 1838 55 107 52 216 188 250 311 19 71 14 211 -10 282 -11 34 -109 226
-217 428 -108 202 -231 432 -273 512 -129 241 -1188 2264 -1270 2425 -97 190
-115 246 -107 334 8 85 66 204 173 356 207 294 282 424 508 875 181 360 268
552 384 842 388 970 598 1898 684 3018 17 216 17 1081 0 1335 -73 1107 -258
2064 -565 2920 -162 450 -314 809 -497 1170 -595 1175 -1458 2257 -2480 3110
-375 312 -866 656 -1265 885 -60 35 -150 93 -200 130 -64 47 -171 106 -375
207 -912 451 -1697 717 -2701 917 -417 83 -993 153 -1529 186 -234 14 -780 20
-1010 10z m-9753 -9302 c-3 -7 -5 -2 -5 12 0 14 2 19 5 13 2 -7 2 -19 0 -25z
m10 -90 c-3 -8 -6 -5 -6 6 -1 11 2 17 5 13 3 -3 4 -12 1 -19z"/>
</g>
</svg>
