<?xml version="1.0" encoding="UTF-8" standalone="no" ?>
<!DOCTYPE svg PUBLIC "-//W3C//DTD SVG 1.1//EN" "http://www.w3.org/Graphics/SVG/1.1/DTD/svg11.dtd">
<svg xmlns="http://www.w3.org/2000/svg" xmlns:xlink="http://www.w3.org/1999/xlink" version="1.1" width="1080" height="1080" viewBox="0 0 1080 1080" xml:space="preserve">
<desc>Created with Fabric.js 5.2.4</desc>
<defs>
</defs>
<g transform="matrix(1 0 0 1 540 540)" id="fba929ce-31cd-4237-a533-f988dc6ea16c"  >
<rect style="stroke: none; stroke-width: 1; stroke-dasharray: none; stroke-linecap: butt; stroke-dashoffset: 0; stroke-linejoin: miter; stroke-miterlimit: 4; fill: rgb(255,255,255); fill-rule: nonzero; opacity: 1; visibility: hidden;" vector-effect="non-scaling-stroke"  x="-540" y="-540" rx="0" ry="0" width="1080" height="1080" />
</g>
<g transform="matrix(1 0 0 1 540 540)" id="e085dfc2-ae4f-4562-a6d3-d530dede1b47"  >
</g>
<g transform="matrix(45 0 0 45 540 540)"  >
<path style="stroke: none; stroke-width: 1; stroke-dasharray: none; stroke-linecap: butt; stroke-dashoffset: 0; stroke-linejoin: miter; stroke-miterlimit: 4; fill: rgb(0,0,0); fill-rule: nonzero; opacity: 1;"  transform=" translate(-12, -12)" d="M 18.6 6.62 C 17.16 6.62 15.8 7.18 14.830000000000002 8.15 L 10.49 12 L 7.8 14.39 C 6.8295845480807245 15.360160355262206 5.368934733377398 15.64735004222617 4.103454255471931 15.116806524419825 C 2.8379737775664635 14.58626300661348 2.018834336308177 13.34328819863611 2.030413622954933 11.971142730995403 C 2.0419929096016896 10.598997263354697 2.881992675258396 9.370023630119222 4.156246610359618 8.860912470228545 C 5.43050054546084 8.351801310337867 6.886095600372819 8.663600658648793 7.839999999999998 9.649999999999999 L 8.969999999999999 10.65 L 10.479999999999999 9.31 L 9.22 8.2 C 7.6781296034018665 6.656796766767259 5.359182942895048 6.192881100235706 3.3422911572560494 7.024138018394948 C 1.325399371617051 7.855394936554189 0.006757171922433969 9.818533777572235 0 12.000000000000004 C 0.006476075352743092 14.168792717140457 1.309860721549591 16.12327902997668 3.309566693337242 16.962850239505844 C 5.309272665124893 17.80242144903501 7.617248149451087 17.364155038326786 9.17 15.85 L 12 13.35 L 16.2 9.61 C 17.170415451919276 8.639839644737794 18.6310652666226 8.35264995777383 19.89654574452807 8.883193475580175 C 21.162026222433536 9.413736993386518 21.981165663691822 10.65671180136389 21.96958637704507 12.028857269004597 C 21.95800709039831 13.401002736645303 21.118007324741605 14.629976369880778 19.843753389640383 15.139087529771455 C 18.56949945453916 15.648198689662133 17.11390439962718 15.336399341351207 16.16 14.350000000000001 L 15.02 13.34 L 13.51 14.68 L 14.78 15.8 C 16.323158668199266 17.34447506512337 18.644519611069047 17.80774824285895 20.662313198770526 16.97393115293025 C 22.680106786472003 16.140114063001548 23.9972715680966 14.173285244233039 24 11.99 C 23.997354480038886 10.561396990932542 23.426618776389393 9.192505191264914 22.413632236491317 8.185146354366271 C 21.400645696593237 7.17778751746763 20.028595578063236 6.614686749523423 18.599999999999998 6.62 z" stroke-linecap="round" />
</g>
</svg>