<?xml version="1.0" encoding="UTF-8" standalone="no" ?>
<!DOCTYPE svg PUBLIC "-//W3C//DTD SVG 1.1//EN" "http://www.w3.org/Graphics/SVG/1.1/DTD/svg11.dtd">
<svg xmlns="http://www.w3.org/2000/svg" xmlns:xlink="http://www.w3.org/1999/xlink" version="1.1" width="1080" height="1080" viewBox="0 0 1080 1080" xml:space="preserve">
<desc>Created with Fabric.js 5.2.4</desc>
<defs>
</defs>
<g transform="matrix(1 0 0 1 540 540)" id="62e5ff8b-93ad-461e-8109-5fbe35f5fac3"  >
<rect style="stroke: none; stroke-width: 1; stroke-dasharray: none; stroke-linecap: butt; stroke-dashoffset: 0; stroke-linejoin: miter; stroke-miterlimit: 4; fill: rgb(255,255,255); fill-rule: nonzero; opacity: 1; visibility: hidden;" vector-effect="non-scaling-stroke"  x="-540" y="-540" rx="0" ry="0" width="1080" height="1080" />
</g>
<g transform="matrix(1 0 0 1 540 540)" id="d7ea42a7-8fd6-47d1-9277-d6029765a156"  >
</g>
<g transform="matrix(45 0 0 45 540 540)"  >
<path style="stroke: none; stroke-width: 1; stroke-dasharray: none; stroke-linecap: butt; stroke-dashoffset: 0; stroke-linejoin: miter; stroke-miterlimit: 4; fill: rgb(0,0,0); fill-rule: evenodd; opacity: 1;"  transform=" translate(-12, -12)" d="M 18 4 L 18 21 C 18 21.552284749830793 17.552284749830793 22 17 22 L 14 22 L 14 20 C 14 19.447715250169207 13.552284749830793 19 13 19 L 11 19 C 10.447715250169207 19 10 19.447715250169207 10 20 L 10 22 L 7 22 C 6.447715250169207 22 6 21.552284749830793 6 21 L 6 4 C 5.447715250169207 4 5 3.5522847498307932 5 3 C 5 2.4477152501692068 5.447715250169207 2 6 2 L 18 2 C 18.552284749830793 2 19 2.4477152501692063 19 3 C 19 3.5522847498307932 18.552284749830793 4 18 4 z M 8.5 14 C 8.223857625084603 14 8 14.223857625084603 8 14.5 L 8 15.5 C 8 15.78 8.22 16 8.5 16 L 10.5 16 C 10.776142374915397 16 11 15.776142374915397 11 15.5 L 11 14.5 C 11 14.223857625084603 10.776142374915397 14 10.5 14 L 8.5 14 z M 8.5 10 C 8.223857625084603 10 8 10.223857625084603 8 10.5 L 8 11.5 C 8 11.78 8.22 12 8.5 12 L 10.5 12 C 10.776142374915397 12 11 11.776142374915397 11 11.5 L 11 10.5 C 11 10.223857625084603 10.776142374915397 10 10.5 10 L 8.5 10 z M 8.5 6 C 8.223857625084603 6 8 6.223857625084603 8 6.5 L 8 7.5 C 8 7.78 8.22 8 8.5 8 L 10.5 8 C 10.776142374915397 8 11 7.776142374915397 11 7.5 L 11 6.5 C 11 6.223857625084603 10.776142374915397 6 10.5 6 L 8.5 6 z M 13.5 14 C 13.223857625084603 14 13 14.223857625084603 13 14.5 L 13 15.5 C 13 15.78 13.22 16 13.5 16 L 15.5 16 C 15.776142374915397 16 16 15.776142374915397 16 15.5 L 16 14.5 C 16 14.223857625084603 15.776142374915397 14 15.5 14 L 13.5 14 z M 13.5 10 C 13.223857625084603 10 13 10.223857625084603 13 10.5 L 13 11.5 C 13 11.78 13.22 12 13.5 12 L 15.5 12 C 15.776142374915397 12 16 11.776142374915397 16 11.5 L 16 10.5 C 16 10.223857625084603 15.776142374915397 10 15.5 10 L 13.5 10 z M 13.5 6 C 13.223857625084603 6 13 6.223857625084603 13 6.5 L 13 7.5 C 13 7.78 13.22 8 13.5 8 L 15.5 8 C 15.776142374915397 8 16 7.776142374915397 16 7.5 L 16 6.5 C 16 6.223857625084603 15.776142374915397 6 15.5 6 L 13.5 6 z" stroke-linecap="round" />
</g>
</svg>