<?xml version="1.0" encoding="UTF-8" standalone="no" ?>
<!DOCTYPE svg PUBLIC "-//W3C//DTD SVG 1.1//EN" "http://www.w3.org/Graphics/SVG/1.1/DTD/svg11.dtd">
<svg xmlns="http://www.w3.org/2000/svg" xmlns:xlink="http://www.w3.org/1999/xlink" version="1.1" width="1080" height="1080" viewBox="0 0 1080 1080" xml:space="preserve">
<desc>Created with Fabric.js 5.2.4</desc>
<defs>
</defs>
<g transform="matrix(1 0 0 1 540 540)" id="f41198bf-6431-42fa-9a11-9e9ed77f9a0b"  >
<rect style="stroke: none; stroke-width: 1; stroke-dasharray: none; stroke-linecap: butt; stroke-dashoffset: 0; stroke-linejoin: miter; stroke-miterlimit: 4; fill: rgb(255,255,255); fill-rule: nonzero; opacity: 1; visibility: hidden;" vector-effect="non-scaling-stroke"  x="-540" y="-540" rx="0" ry="0" width="1080" height="1080" />
</g>
<g transform="matrix(1 0 0 1 540 540)" id="25c92282-0040-4a5e-89af-bcaa3507ced2"  >
</g>
<g transform="matrix(45 0 0 45 540 540)"  >
<path style="stroke: none; stroke-width: 1; stroke-dasharray: none; stroke-linecap: butt; stroke-dashoffset: 0; stroke-linejoin: miter; stroke-miterlimit: 4; fill: rgb(0,0,0); fill-rule: evenodd; opacity: 1;"  transform=" translate(-12, -12)" d="M 14.06 9 C 14.56 9 14.99 8.61 15 8.11 C 15.029124534505117 6.884637089443848 14.538745092588208 5.7040939885327715 13.650000000000002 4.859999999999999 C 13 4.14 12.85 3.5899999999999994 12.88 2.9499999999999993 C 12.885432424283863 2.698157637787008 12.788471703651187 2.4548839470183235 12.611295754917325 2.275823147766016 C 12.434119806183462 2.096762348513708 12.191885746448335 1.9972328038042928 11.940000000000001 1.9999999999999993 C 11.440000000000001 1.9999999999999993 11.010000000000002 2.3999999999999995 11.000000000000002 2.8999999999999995 C 10.970875465494887 4.125362910556151 11.461254907411794 5.30590601146723 12.350000000000001 6.150000000000001 C 12.96 6.739999999999999 13.13 7.42 13.13 8.04 C 13.120000000000001 8.559999999999999 13.530000000000001 9 14.06 9 z M 10.06 9 C 10.56 9 10.99 8.61 11 8.11 C 11.029124534505117 6.884637089443848 10.538745092588208 5.7040939885327715 9.650000000000002 4.859999999999999 C 9 4.14 8.85 3.5899999999999994 8.88 2.9499999999999993 C 8.885432424283863 2.698157637787008 8.788471703651187 2.4548839470183235 8.611295754917325 2.2758231477660162 C 8.434119806183462 2.0967623485137086 8.191885746448333 1.9972328038042935 7.940000000000001 2 C 7.44 2 7.010000000000001 2.4 7 2.9 C 6.970875465494884 4.125362910556152 7.461254907411793 5.305906011467231 8.350000000000001 6.150000000000002 C 8.959999999999999 6.74 9.129999999999999 7.42 9.129999999999999 8.040000000000001 C 9.12 8.56 9.53 9 10.059999999999999 9 z M 20 20 C 20.552284749830793 20 21 20.447715250169207 21 21 C 21 21.552284749830793 20.552284749830793 22 20 22 L 4 22 C 3.4477152501692068 22 3 21.552284749830793 3 21 C 3 20.447715250169207 3.4477152501692068 20 4 20 L 20 20 z M 19.85 11 C 20.139614345200304 11.000043877134566 20.41498535290343 11.12564490837998 20.6048816164564 11.34431333307734 C 20.794777880009367 11.562981757774697 20.8805460121171 11.853237917826636 20.84 12.14 L 20.24 16.28 C 20.10163022671292 17.25898975853429 19.268668931133643 17.989955793430397 18.28 18 L 9.73 18 C 8.73372378387237 17.999849058989145 7.889478660424481 17.266464406297043 7.75 16.28 L 7.3 13 L 4 13 C 3.4477152501692068 13 3 12.552284749830793 3 12 C 3 11.447715250169207 3.4477152501692068 11 4 11 L 19.85 11 z M 15.940000000000001 2 C 16.470000000000002 2 16.900000000000002 2.43 16.880000000000003 2.95 C 16.85 3.5900000000000003 17.000000000000004 4.140000000000001 17.650000000000002 4.86 C 18.538745092588208 5.704093988532772 19.029124534505115 6.8846370894438484 19 8.11 C 18.97842990760537 8.61183726563442 18.562266381997745 9.005864433496958 18.06 9 C 17.808061746446427 9.000131116534291 17.56685004707692 8.898041888530484 17.391552591830994 8.717089676663722 C 17.21625513658507 8.536137464796962 17.12187292434362 8.291807171137847 17.13 8.04 C 17.13 7.419999999999999 16.959999999999997 6.739999999999999 16.349999999999998 6.1499999999999995 C 15.46125490741179 5.305906011467227 14.970875465494883 4.1253629105561505 15 2.8999999999999986 C 15.01 2.4 15.44 2 15.94 2 z" stroke-linecap="round" />
</g>
</svg>