<?xml version="1.0" encoding="UTF-8" standalone="no" ?>
<!DOCTYPE svg PUBLIC "-//W3C//DTD SVG 1.1//EN" "http://www.w3.org/Graphics/SVG/1.1/DTD/svg11.dtd">
<svg xmlns="http://www.w3.org/2000/svg" xmlns:xlink="http://www.w3.org/1999/xlink" version="1.1" width="1080" height="1080" viewBox="0 0 1080 1080" xml:space="preserve">
<desc>Created with Fabric.js 5.2.4</desc>
<defs>
</defs>
<g transform="matrix(1 0 0 1 540 540)" id="59765210-0a1a-4d96-882f-c00e969dedbc"  >
<rect style="stroke: none; stroke-width: 1; stroke-dasharray: none; stroke-linecap: butt; stroke-dashoffset: 0; stroke-linejoin: miter; stroke-miterlimit: 4; fill: rgb(255,255,255); fill-rule: nonzero; opacity: 1; visibility: hidden;" vector-effect="non-scaling-stroke"  x="-540" y="-540" rx="0" ry="0" width="1080" height="1080" />
</g>
<g transform="matrix(1 0 0 1 540 540)" id="af4a6028-5b4d-4017-818c-a6e178122368"  >
</g>
<g transform="matrix(45 0 0 45 540 540)"  >
<path style="stroke: none; stroke-width: 1; stroke-dasharray: none; stroke-linecap: butt; stroke-dashoffset: 0; stroke-linejoin: miter; stroke-miterlimit: 4; fill: rgb(0,0,0); fill-rule: evenodd; opacity: 1;"  transform=" translate(-12, -12)" d="M 9 22 L 3 22 C 2.4477152501692068 22 2 21.552284749830793 2 21 L 2 12.5 C 2 10.67 5.67 9.5 7.5 9.5 C 9.120000000000001 9.5 12.2 10.42 12.870000000000001 11.9 C 14.005714577850302 11.354899273093311 15.241182337585514 11.048584952497801 16.5 10.999999999999998 C 18.33 11 22 12.17 22 14 L 22 21 C 22 21.552284749830793 21.552284749830793 22 21 22 L 15 22 L 15 20.5 C 15 19.6 14.23 19 13.29 19 L 10.7 19 C 9.77 19 9 19.6 9 20.5 L 9 22 z M 7.5 8 C 6.70353554457754 8.002668245115888 5.938922523414119 7.687454632145594 5.375733945634263 7.124266054365738 C 4.812545367854407 6.561077476585882 4.497331754884112 5.796464455422461 4.5 5.000000000000002 C 4.5 3.33 5.83 2 7.5 2 C 9.16 2 10.5 3.33 10.5 5 C 10.5 6.67 9.16 8 7.5 8 z M 16.5 9.5 C 15.703535544577539 9.502668245115888 14.938922523414119 9.187454632145595 14.375733945634263 8.624266054365737 C 13.812545367854407 8.061077476585883 13.497331754884112 7.296464455422461 13.5 6.500000000000002 C 13.5 4.83 14.84 3.5 16.5 3.5 C 18.16 3.5 19.5 4.83 19.5 6.5 C 19.5 8.16 18.16 9.5 16.5 9.5 z M 12 18 C 12.597552731863011 18.00267365421637 13.17140379331012 17.766479429905825 13.59394161160797 17.343941611607974 C 14.016479429905823 16.92140379331012 14.252673654216368 16.34755273186301 14.25 15.75 C 14.252673654216368 15.152447268136989 14.016479429905823 14.57859620668988 13.593941611607972 14.156058388392028 C 13.17140379331012 13.733520570094177 12.597552731863011 13.497326345783632 12 13.5 C 11.402447268136989 13.497326345783632 10.82859620668988 13.733520570094177 10.406058388392028 14.156058388392028 C 9.983520570094175 14.57859620668988 9.747326345783632 15.152447268136989 9.75 15.75 C 9.747326345783632 16.34755273186301 9.983520570094177 16.92140379331012 10.406058388392028 17.34394161160797 C 10.82859620668988 17.766479429905825 11.402447268136989 18.00267365421637 12 18 z" stroke-linecap="round" />
</g>
</svg>