<?xml version="1.0" encoding="UTF-8" standalone="no" ?>
<!DOCTYPE svg PUBLIC "-//W3C//DTD SVG 1.1//EN" "http://www.w3.org/Graphics/SVG/1.1/DTD/svg11.dtd">
<svg xmlns="http://www.w3.org/2000/svg" xmlns:xlink="http://www.w3.org/1999/xlink" version="1.1" width="1080" height="1080" viewBox="0 0 1080 1080" xml:space="preserve">
<desc>Created with Fabric.js 5.2.4</desc>
<defs>
</defs>
<g transform="matrix(1 0 0 1 540 540)" id="5e92f2bb-e4a4-46f0-8d2d-1b48f2af32bd"  >
<rect style="stroke: none; stroke-width: 1; stroke-dasharray: none; stroke-linecap: butt; stroke-dashoffset: 0; stroke-linejoin: miter; stroke-miterlimit: 4; fill: rgb(255,255,255); fill-rule: nonzero; opacity: 1; visibility: hidden;" vector-effect="non-scaling-stroke"  x="-540" y="-540" rx="0" ry="0" width="1080" height="1080" />
</g>
<g transform="matrix(1 0 0 1 540 540)" id="2b1f91f2-9f5f-4ccc-90b4-3025bfac28fd"  >
</g>
<g transform="matrix(45 0 0 45 540 540)"  >
<path style="stroke: none; stroke-width: 1; stroke-dasharray: none; stroke-linecap: butt; stroke-dashoffset: 0; stroke-linejoin: miter; stroke-miterlimit: 4; fill: rgb(0,0,0); fill-rule: evenodd; opacity: 1;"  transform=" translate(-12, -12.5)" d="M 18.65 5.86 C 18.049999999999997 5.260000000000001 17.75 4.42 17.91 3.5900000000000003 L 18 3 L 16.11 3 L 16.05 3.43 C 15.847778925877435 4.839618990353474 16.361586443285237 6.257277688018791 17.42 7.210000000000001 C 17.990000000000002 7.83 18.240000000000002 8.62 18.090000000000003 9.41 L 17.980000000000004 10 L 19.890000000000004 10 L 19.950000000000003 9.57 C 20.150777664781756 8.195024622915323 19.66508480530734 6.808931923953727 18.650000000000002 5.86 z M 9 6 C 9 7.1045694996615865 8.104569499661586 8 7 8 C 5.8954305003384135 8 5 7.1045694996615865 5 6 C 5 4.8954305003384135 5.8954305003384135 4 7 4 C 8.104569499661586 4 9 4.895430500338413 9 5.999999999999999 z M 11 12 L 22 12 L 22 20 C 22 21.104569499661586 21.104569499661586 22 20 22 L 4 22 C 2.895430500338413 22 2 21.104569499661586 2 20 L 2 12 L 5 12 L 5 11.25 C 5.016415599781794 10.002522063309689 6.032414065973458 8.999891997988968 7.279999999999999 9 C 7.88 9 8.52 9.28 8.93 9.73 L 11 12 z M 7 20 L 5 20 L 5 14 L 7 14 L 7 20 z M 9 20 L 11 20 L 11 14 L 9 14 L 9 20 z M 15 14 L 15 20 L 13 20 L 13 14 L 15 14 z M 19 20 L 19 14 L 17 14 L 17 20 L 19 20 z M 14.65 5.86 C 15.665084805307341 6.808931923953728 16.150777664781753 8.195024622915323 15.95 9.57 L 15.89 10 L 13.98 10 L 14.09 9.41 C 14.24 8.620000000000001 13.99 7.83 13.42 7.21 C 12.361586443285233 6.257277688018788 11.847778925877433 4.839618990353472 12.05 3.429999999999999 L 12.110000000000001 3 L 14 3 L 13.91 3.59 C 13.75 4.42 14.06 5.27 14.65 5.859999999999999 z" stroke-linecap="round" />
</g>
</svg>