<?xml version="1.0" encoding="UTF-8" standalone="no" ?>
<!DOCTYPE svg PUBLIC "-//W3C//DTD SVG 1.1//EN" "http://www.w3.org/Graphics/SVG/1.1/DTD/svg11.dtd">
<svg xmlns="http://www.w3.org/2000/svg" xmlns:xlink="http://www.w3.org/1999/xlink" version="1.1" width="1080" height="1080" viewBox="0 0 1080 1080" xml:space="preserve">
<desc>Created with Fabric.js 5.2.4</desc>
<defs>
</defs>
<g transform="matrix(1 0 0 1 540 540)" id="b2e9f5e7-7fdc-41eb-95f6-3eb40ea2d824"  >
<rect style="stroke: none; stroke-width: 1; stroke-dasharray: none; stroke-linecap: butt; stroke-dashoffset: 0; stroke-linejoin: miter; stroke-miterlimit: 4; fill: rgb(255,255,255); fill-rule: nonzero; opacity: 1; visibility: hidden;" vector-effect="non-scaling-stroke"  x="-540" y="-540" rx="0" ry="0" width="1080" height="1080" />
</g>
<g transform="matrix(1 0 0 1 540 540)" id="04813c88-5854-4f63-8ac3-93375b4cab3e"  >
</g>
<g transform="matrix(45 0 0 45 540 540)"  >
<path style="stroke: none; stroke-width: 1; stroke-dasharray: none; stroke-linecap: butt; stroke-dashoffset: 0; stroke-linejoin: miter; stroke-miterlimit: 4; fill: rgb(0,0,0); fill-rule: evenodd; opacity: 1;"  transform=" translate(-12, -12)" d="M 20 21 C 18.67087141367418 20.979668437728527 17.37448498097122 20.58451321492602 16.259999999999998 19.86 C 16.09786460187905 19.758665094337434 15.892135398120947 19.758665094337434 15.729999999999999 19.86 C 13.456798843954383 21.329461291013025 10.533201156045614 21.329461291013025 8.259999999999998 19.86 C 8.09786460187905 19.758665094337434 7.8921353981209466 19.758665094337434 7.729999999999998 19.86 C 6.619780046855192 20.58570675211915 5.3262276310746755 20.98105521163384 4 21 L 3 21 C 2.4477152501692068 21 2 21.447715250169207 2 22 C 2 22.552284749830793 2.4477152501692068 23 3 23 L 4 23 C 5.38 23 6.74 22.65 8 22.01 C 10.510557690398679 23.300411722484412 13.489442309601321 23.300411722484412 16 22.01 C 17.234816514824608 22.65555637795736 18.606626163306675 22.995079265956672 20.000000000000004 23 L 21 23 C 21.552284749830793 23 22 22.552284749830793 22 22 C 22 21.447715250169207 21.552284749830793 21 21 21 L 20 21 z M 3.95 19 L 4 19 C 5.42 19 6.7 18.3 7.66 17.36 C 7.853149147022128 17.175872911445268 8.156850852977872 17.175872911445268 8.35 17.36 C 9.299999999999999 18.36 10.62 18.96 12 19 C 13.42 19 14.7 18.3 15.66 17.36 C 15.86 17.169999999999998 16.16 17.169999999999998 16.35 17.36 C 17.3 18.36 18.62 18.96 20 19 L 20.05 19 L 21.94 12.32 C 22.027464223822665 12.062832067976622 22.006548031051206 11.78114827745962 21.88206086271765 11.539718617661212 C 21.7575736943841 11.298288957862804 21.54022801656731 11.1178891205723 21.28 11.040000000000001 L 20 10.62 L 20 6 C 20 4.8954305003384135 19.104569499661586 4 18 4 L 15 4 L 15 2 C 15 1.4477152501692065 14.552284749830793 1 14 1 L 10 1 C 9.447715250169207 1 9 1.4477152501692065 9 2 L 9 4 L 6 4 C 4.8954305003384135 4 4 4.8954305003384135 4 6 L 4 10.620000000000001 L 2.71 11.040000000000001 C 2.449771983432691 11.1178891205723 2.2324263056159026 11.298288957862804 2.107939137282348 11.539718617661212 C 1.983451968948794 11.78114827745962 1.962535776177337 12.062832067976622 2.05 12.32 L 3.95 19 z M 7 6 L 17 6 C 17.552284749830793 6 18 6.447715250169207 18 7 L 18 9.97 L 12.62 8.2 C 12.219999999999999 8.069999999999999 11.78 8.069999999999999 11.37 8.2 L 6 9.97 L 6 7 C 6 6.447715250169207 6.447715250169207 6 7 6 z" stroke-linecap="round" />
</g>
</svg>