<?xml version="1.0" encoding="UTF-8" standalone="no" ?>
<!DOCTYPE svg PUBLIC "-//W3C//DTD SVG 1.1//EN" "http://www.w3.org/Graphics/SVG/1.1/DTD/svg11.dtd">
<svg xmlns="http://www.w3.org/2000/svg" xmlns:xlink="http://www.w3.org/1999/xlink" version="1.1" width="1080" height="1080" viewBox="0 0 1080 1080" xml:space="preserve">
<desc>Created with Fabric.js 5.2.4</desc>
<defs>
</defs>
<g transform="matrix(1 0 0 1 540 540)" id="97947ed3-15e5-441c-96a2-8cf3b427a24a"  >
<rect style="stroke: none; stroke-width: 1; stroke-dasharray: none; stroke-linecap: butt; stroke-dashoffset: 0; stroke-linejoin: miter; stroke-miterlimit: 4; fill: rgb(255,255,255); fill-rule: nonzero; opacity: 1; visibility: hidden;" vector-effect="non-scaling-stroke"  x="-540" y="-540" rx="0" ry="0" width="1080" height="1080" />
</g>
<g transform="matrix(1 0 0 1 540 540)" id="55bced4c-bc2a-446f-8c85-7ee02199950e"  >
</g>
<g transform="matrix(45 0 0 45 540 540)"  >
<path style="stroke: none; stroke-width: 1; stroke-dasharray: none; stroke-linecap: butt; stroke-dashoffset: 0; stroke-linejoin: miter; stroke-miterlimit: 4; fill: rgb(0,0,0); fill-rule: evenodd; opacity: 1;"  transform=" translate(-12, -12)" d="M 6.11 5.52 C 5.4876994034985245 5.45450793336587 5.011702043989413 4.935627928855938 5 4.31 L 5 4.21 C 5 3.51 5.6 2.94 6.3 3.01 C 8.04 3.15 9.219999999999999 3.69 10.48 4.96 L 16.9 11.379999999999999 L 16.49 11.61 C 16.119999999999997 11.85 15.889999999999999 11.979999999999999 15.339999999999998 11.979999999999999 C 14.789999999999997 11.979999999999999 14.559999999999999 11.839999999999998 14.189999999999998 11.62 C 13.54620599058276 11.186972350250754 12.785814806231048 10.960250208127539 12.009999999999998 10.969999999999999 C 10.899999999999999 10.969999999999999 10.279999999999998 11.339999999999998 9.819999999999999 11.61 C 9.490735186612984 11.862127273881566 9.084510533660994 11.99282564048351 8.669999999999998 11.979999999999999 C 8.256690894911674 11.995688346882517 7.8505877558302695 11.868560407691815 7.519999999999998 11.62 C 7.2744357388402845 11.466302788981949 7.016944150143656 11.33254092472396 6.75 11.219999999999999 L 10 7.97 L 9 6.97 C 8.247830776309783 6.1476203602983 7.21890139658278 5.6313755157985925 6.110000000000001 5.52 z M 21.35 18.91 C 21.73 19.04 22 19.36 22 19.77 L 22 19.89 C 21.99607862446326 20.203997035961006 21.840395356144548 20.496669269258195 21.582209313403666 20.675413452694187 C 21.324023270662785 20.854157636130182 20.995281549848432 20.896856549155885 20.7 20.79 C 20.33 20.669999999999998 20.05 20.49 19.82 20.36 C 19.45 20.14 19.22 20 18.67 20 C 18.110000000000003 20 17.89 20.13 17.520000000000003 20.36 C 17.060000000000002 20.63 16.450000000000003 21 15.340000000000003 21 C 14.565069665116518 21.01397754080023 13.804394523146662 20.790660067928343 13.160000000000004 20.36 C 12.790000000000004 20.14 12.560000000000004 20 12.010000000000003 20 C 11.450000000000003 20 11.230000000000004 20.13 10.860000000000003 20.36 C 10.400000000000002 20.63 9.780000000000003 21 8.670000000000003 21 C 7.895069665116517 21.01397754080023 7.134394523146662 20.790660067928343 6.490000000000005 20.36 C 6.120000000000004 20.13 5.890000000000004 20 5.340000000000003 20 C 4.790000000000004 20 4.560000000000003 20.13 4.190000000000003 20.35 C 3.950000000000003 20.490000000000002 3.670000000000003 20.650000000000002 3.300000000000003 20.790000000000003 C 3.00306699582469 20.897427201041143 2.672426887956136 20.853596881492553 2.4137391664790098 20.672515476458564 C 2.1550514450018836 20.491434071424575 2.0006964769609494 20.195767837836527 2.0000000000000027 19.880000000000003 L 2.0000000000000027 19.76 C 2.0000000000000027 19.360000000000003 2.2700000000000027 19.03 2.6500000000000026 18.900000000000002 C 2.8200000000000025 18.840000000000003 2.9700000000000024 18.750000000000004 3.1500000000000026 18.630000000000003 C 3.6100000000000025 18.360000000000003 4.230000000000002 17.990000000000002 5.3400000000000025 17.990000000000002 C 6.450000000000003 17.990000000000002 7.070000000000002 18.360000000000003 7.520000000000003 18.630000000000003 C 7.890000000000003 18.860000000000003 8.110000000000003 18.990000000000002 8.670000000000003 18.990000000000002 C 9.230000000000004 18.990000000000002 9.450000000000003 18.860000000000003 9.820000000000004 18.630000000000003 C 10.280000000000005 18.360000000000003 10.900000000000004 17.990000000000002 12.010000000000003 17.990000000000002 C 13.120000000000003 17.990000000000002 13.740000000000004 18.360000000000003 14.190000000000003 18.630000000000003 C 14.560000000000002 18.85 14.790000000000003 18.990000000000002 15.340000000000003 18.990000000000002 C 15.890000000000004 18.990000000000002 16.120000000000005 18.860000000000003 16.490000000000002 18.630000000000003 C 16.94 18.360000000000003 17.560000000000002 17.990000000000002 18.67 17.990000000000002 C 19.78 17.990000000000002 20.400000000000002 18.360000000000003 20.85 18.630000000000003 C 21.03 18.750000000000004 21.18 18.840000000000003 21.35 18.900000000000002 z M 3.11 16.34 C 2.8437275699016022 16.412121605336917 2.5590440211691647 16.355204391233485 2.3409709114902015 16.18624684679753 C 2.1228978018112383 16.017289302361576 1.9966752563342378 15.755846839870312 2 15.48 L 2 15.25 C 2 14.85 2.27 14.52 2.65 14.39 C 2.82 14.32 2.9699999999999998 14.23 3.15 14.120000000000001 C 3.794938484045154 13.690504612558353 4.5552416161122675 13.46729635360287 5.329999999999998 13.48 C 6.44 13.48 7.07 13.85 7.52 14.120000000000001 C 7.89 14.340000000000002 8.12 14.48 8.67 14.48 C 9.23 14.48 9.45 14.35 9.82 14.120000000000001 C 10.464938484045154 13.690504612558355 11.22524161611227 13.46729635360287 12 13.48 C 13.11 13.48 13.73 13.85 14.18 14.120000000000001 C 14.549999999999999 14.340000000000002 14.78 14.48 15.33 14.48 C 15.88 14.48 16.11 14.35 16.48 14.120000000000001 C 17.127757544626856 13.688551241317146 17.891848045441442 13.465255387197814 18.67 13.48 C 19.770000000000003 13.48 20.400000000000002 13.85 20.85 14.120000000000001 C 21.040000000000003 14.23 21.19 14.32 21.35 14.38 C 21.73 14.520000000000001 22 14.840000000000002 22 15.24 L 22 15.370000000000001 C 21.99271631072291 15.68473021510767 21.834676976416432 15.976799824985383 21.57519886170582 16.155067232038473 C 21.31572074699521 16.333334639091564 20.98639903332325 16.37609323011507 20.69 16.27 C 20.393368695210174 16.158697880777044 20.108617275192916 16.01799717912146 19.84 15.849999999999998 C 19.47 15.629999999999999 19.24 15.49 18.69 15.49 C 18.130000000000003 15.49 17.91 15.620000000000001 17.540000000000003 15.85 C 17.090000000000003 16.12 16.46 16.49 15.350000000000003 16.49 C 14.57532724895247 16.50207215925965 13.81520780124973 16.27891782598912 13.170000000000003 15.849999999999998 C 12.800000000000004 15.629999999999997 12.570000000000004 15.489999999999998 12.020000000000003 15.489999999999998 C 11.460000000000003 15.489999999999998 11.240000000000004 15.62 10.870000000000003 15.849999999999998 C 10.420000000000003 16.119999999999997 9.800000000000002 16.49 8.690000000000003 16.49 C 7.915241616112273 16.502703646397126 7.154938484045157 16.279495387441646 6.510000000000003 15.849999999999998 C 6.1300000000000034 15.629999999999997 5.910000000000004 15.489999999999998 5.350000000000003 15.489999999999998 C 4.800000000000003 15.489999999999998 4.570000000000003 15.62 4.200000000000003 15.849999999999998 C 3.9200000000000026 16.009999999999998 3.5800000000000027 16.209999999999997 3.110000000000003 16.339999999999996 z M 16.5 8 C 15.119288125423017 8 14 6.880711874576983 14 5.5 C 14 4.119288125423017 15.119288125423017 3 16.5 3 C 17.880711874576985 3 19 4.119288125423016 19 5.5 C 19 6.880711874576983 17.880711874576985 8 16.5 8 z" stroke-linecap="round" />
</g>
</svg>