<?xml version="1.0" encoding="UTF-8" standalone="no" ?>
<!DOCTYPE svg PUBLIC "-//W3C//DTD SVG 1.1//EN" "http://www.w3.org/Graphics/SVG/1.1/DTD/svg11.dtd">
<svg xmlns="http://www.w3.org/2000/svg" xmlns:xlink="http://www.w3.org/1999/xlink" version="1.1" width="1080" height="1080" viewBox="0 0 1080 1080" xml:space="preserve">
<desc>Created with Fabric.js 5.2.4</desc>
<defs>
</defs>
<g transform="matrix(1 0 0 1 540 540)" id="5f5fbc24-1ea5-4e44-b756-257ce775064f"  >
<rect style="stroke: none; stroke-width: 1; stroke-dasharray: none; stroke-linecap: butt; stroke-dashoffset: 0; stroke-linejoin: miter; stroke-miterlimit: 4; fill: rgb(255,255,255); fill-rule: nonzero; opacity: 1; visibility: hidden;" vector-effect="non-scaling-stroke"  x="-540" y="-540" rx="0" ry="0" width="1080" height="1080" />
</g>
<g transform="matrix(1 0 0 1 540 540)" id="25015591-d148-4774-8fc6-d760b093c56d"  >
</g>
<g transform="matrix(45 0 0 45 540 540)"  >
<path style="stroke: none; stroke-width: 1; stroke-dasharray: none; stroke-linecap: butt; stroke-dashoffset: 0; stroke-linejoin: miter; stroke-miterlimit: 4; fill: rgb(0,0,0); fill-rule: nonzero; opacity: 1;"  transform=" translate(-12, -11.92)" d="M 16.5 2.05 C 14.83338168502721 1.4755031932539315 12.98859656793059 2.090431565619472 12 3.5500000000000007 C 11.011403432069407 2.090431565619471 9.166618314972789 1.4755031932539313 7.499999999999998 2.0500000000000003 L 9.98 4.52 C 8.11359853841943 4.321651246616789 6.322737687867034 5.313020646029724 5.5 7.000000000000001 L 9.55 7 C 8.090431565619472 7.988596567930592 7.475503193253933 9.83338168502721 8.05 11.5 L 11.190000000000001 8.35 L 10.690000000000001 14 L 7 14 C 4.790861000676826 14 3 15.790861000676827 3 18 L 4 18 C 5.6 18 7.02 17.12 8 16 C 8.98 17.12 10.4 18 12 18 C 13.6 18 15.02 17.12 16 16 C 16.98 17.12 18.4 18 20 18 L 21 18 C 21 15.790861000676827 19.209138999323173 14 17 14 L 13.32 14 L 12.8 8.35 L 15.950000000000001 11.5 C 16.52449680674607 9.83338168502721 15.90956843438053 7.988596567930591 14.45 7 L 18.5 7 C 17.677262312132967 5.313020646029724 15.886401461580569 4.3216512466167885 14.019999999999998 4.52 L 16.5 2.0499999999999994 z M 16 18.68 C 17.167077199945208 19.51849420816886 18.563090747350866 19.97917867881273 19.999999999999996 20 L 21 20 L 21 22 L 20 22 C 18.60662616330667 21.99507926595667 17.234816514824605 21.65555637795736 15.999999999999998 21.01 C 13.489442309601321 22.300411722484412 10.51055769039868 22.300411722484416 8 21.01 C 6.763404642595079 21.650848678296256 5.392751523300365 21.990085325321697 4 22 L 3 22 L 3 20 L 4 20 C 5.39 20 6.779999999999999 19.53 8 18.68 C 10.392623691691414 20.38971490793135 13.60737630830859 20.38971490793135 16.000000000000004 18.68 z" stroke-linecap="round" />
</g>
</svg>