<?xml version="1.0" encoding="UTF-8" standalone="no" ?>
<!DOCTYPE svg PUBLIC "-//W3C//DTD SVG 1.1//EN" "http://www.w3.org/Graphics/SVG/1.1/DTD/svg11.dtd">
<svg xmlns="http://www.w3.org/2000/svg" xmlns:xlink="http://www.w3.org/1999/xlink" version="1.1" width="1080" height="1080" viewBox="0 0 1080 1080" xml:space="preserve">
<desc>Created with Fabric.js 5.2.4</desc>
<defs>
</defs>
<g transform="matrix(1 0 0 1 540 540)" id="37f60cd4-829f-4971-bf1b-60ff22d98230"  >
<rect style="stroke: none; stroke-width: 1; stroke-dasharray: none; stroke-linecap: butt; stroke-dashoffset: 0; stroke-linejoin: miter; stroke-miterlimit: 4; fill: rgb(255,255,255); fill-rule: nonzero; opacity: 1; visibility: hidden;" vector-effect="non-scaling-stroke"  x="-540" y="-540" rx="0" ry="0" width="1080" height="1080" />
</g>
<g transform="matrix(1 0 0 1 540 540)" id="e9a7b689-1137-49b4-bed4-f9d051c56547"  >
</g>
<g transform="matrix(45 0 0 45 540 540)"  >
<path style="stroke: none; stroke-width: 1; stroke-dasharray: none; stroke-linecap: butt; stroke-dashoffset: 0; stroke-linejoin: miter; stroke-miterlimit: 4; fill: rgb(0,0,0); fill-rule: nonzero; opacity: 1;"  transform=" translate(-12, -12.5)" d="M 21.98 14 L 22 14 L 21.98 14 Z M 5.35 13 C 6.539999999999999 13 6.77 14 8.68 14 C 10.629999999999999 14 10.77 13 12.01 13 C 13.2 13 13.43 14 15.34 14 C 17.29 14 17.43 13 18.67 13 C 19.860000000000003 13 20.07 13.98 21.98 14 L 21.98 12 C 20.79 12 20.560000000000002 11 18.65 11 C 16.7 11 16.56 12 15.319999999999999 12 C 14.129999999999999 12 13.899999999999999 11 11.989999999999998 11 C 10.04 11 9.899999999999999 12 8.659999999999998 12 C 7.469999999999999 12 7.239999999999998 11 5.329999999999998 11 C 3.379999999999998 11 3.2399999999999984 12 1.9999999999999982 12 L 1.9999999999999982 14 C 3.899999999999998 14 4.169999999999998 13 5.349999999999998 13 Z M 18.67 15 C 16.720000000000002 15 16.580000000000002 16 15.340000000000002 16 C 14.150000000000002 16 13.920000000000002 15 12.010000000000002 15 C 10.060000000000002 15 9.910000000000002 16 8.670000000000002 16 C 7.4300000000000015 16 7.290000000000002 15 5.340000000000002 15 C 3.3900000000000015 15 3.2400000000000015 16 2.0000000000000018 16 L 2.0000000000000018 18 C 3.950000000000002 18 4.110000000000001 17 5.340000000000002 17 C 6.580000000000002 17 6.7200000000000015 18 8.670000000000002 18 C 10.620000000000001 18 10.770000000000001 17 12.010000000000002 17 C 13.200000000000001 17 13.430000000000001 18 15.340000000000002 18 C 17.28 18 17.43 17 18.67 17 C 19.860000000000003 17 20.090000000000003 18 22 18 L 22 16 C 20.76 16 20.62 15 18.67 15 Z M 5.35 9 C 6.539999999999999 9 6.77 10 8.68 10 C 10.629999999999999 10 10.77 9 12.01 9 C 13.2 9 13.43 10 15.34 10 C 17.29 10 17.43 9 18.67 9 C 19.860000000000003 9 20.07 9.98 21.98 10 L 21.98 8 C 20.79 8 20.560000000000002 7 18.65 7 C 16.7 7 16.56 8 15.319999999999999 8 C 14.129999999999999 8 13.899999999999999 7 11.989999999999998 7 C 10.04 7 9.899999999999999 8 8.659999999999998 8 C 7.469999999999999 8 7.239999999999998 7 5.329999999999998 7 C 3.38 7 3.24 8 2 8 L 2 10 C 3.9 10 4.17 9 5.35 9 Z" stroke-linecap="round" />
</g>
</svg>