<?xml version="1.0" encoding="UTF-8" standalone="no" ?>
<!DOCTYPE svg PUBLIC "-//W3C//DTD SVG 1.1//EN" "http://www.w3.org/Graphics/SVG/1.1/DTD/svg11.dtd">
<svg xmlns="http://www.w3.org/2000/svg" xmlns:xlink="http://www.w3.org/1999/xlink" version="1.1" width="1080" height="1080" viewBox="0 0 1080 1080" xml:space="preserve">
<desc>Created with Fabric.js 5.2.4</desc>
<defs>
</defs>
<g transform="matrix(1 0 0 1 540 540)" id="c064eb03-fbcd-4a93-a313-52ed6f235932"  >
<rect style="stroke: none; stroke-width: 1; stroke-dasharray: none; stroke-linecap: butt; stroke-dashoffset: 0; stroke-linejoin: miter; stroke-miterlimit: 4; fill: rgb(255,255,255); fill-rule: nonzero; opacity: 1; visibility: hidden;" vector-effect="non-scaling-stroke"  x="-540" y="-540" rx="0" ry="0" width="1080" height="1080" />
</g>
<g transform="matrix(1 0 0 1 540 540)" id="76a51163-a503-4d1b-bbfb-e0cbdd5adfc9"  >
</g>
<g transform="matrix(45 0 0 45 540 540)"  >
<path style="stroke: none; stroke-width: 1; stroke-dasharray: none; stroke-linecap: butt; stroke-dashoffset: 0; stroke-linejoin: miter; stroke-miterlimit: 4; fill: rgb(0,0,0); fill-rule: evenodd; opacity: 1;"  transform=" translate(-12, -12)" d="M 12.84 2.38 C 12.44 1.88 11.68 1.88 11.27 2.38 C 9.664483549119575 4.42044947481935 8.700470750076567 6.891384808106481 8.499999999999998 9.48000000000001 C 9.79 10.17 10.96 11.17 11.99 12.24 C 13.012091175784096 11.15016084658361 14.191885099020165 10.219809067117454 15.489999999999998 9.480000000000004 C 15.340175184711853 6.89472317722791 14.41691892380473 4.414125223394434 12.84 2.360000000000003 z M 8.969999999999999 12.27 L 8.509999999999998 11.98 C 8.659999999999998 12.09 8.829999999999998 12.17 8.969999999999999 12.27 z M 11.989999999999998 15.44 C 10.000333973832003 12.394661557436008 6.739524705692347 10.413177684237276 3.119999999999999 10.05 C 2.8162290145336115 10.018723493214203 2.514425031329439 10.125196624122642 2.297524843840848 10.34016020279437 C 2.0806246563522572 10.555123781466099 1.9714490997400744 10.855960730197085 2 11.16 C 2.5216098192416596 16.608642601175607 6.611014047072096 21.0415567841438 11.999999999999996 22 C 17.390715873107503 21.044718182730563 21.481680553531756 16.610112469150675 22 11.16 C 22.028550900259926 10.855960730197085 21.919375343647744 10.555123781466097 21.702475156159153 10.340160202794369 C 21.48557496867056 10.12519662412264 21.18377098546639 10.018723493214203 20.88 10.05 C 17.253220395002803 10.407361152166196 13.983944210038882 12.389520728876604 11.989999999999995 15.440000000000008 z" stroke-linecap="round" />
</g>
</svg>